<svg width="116" height="35" viewBox="0 0 116 35" fill="none" xmlns="http://www.w3.org/2000/svg">
<path fill-rule="evenodd" clip-rule="evenodd" d="M17.47 3.76682C17.4891 3.75566 17.5109 3.74978 17.533 3.74978C17.5551 3.74978 17.5769 3.75566 17.596 3.76682L31.254 11.7138C31.2729 11.7248 31.2885 11.7406 31.2994 11.7595C31.3103 11.7785 31.316 11.8 31.316 11.8218V30.8118C31.3157 30.8448 31.3025 30.8763 31.279 30.8996C31.2556 30.9228 31.224 30.9358 31.191 30.9358H18.783V18.9218C18.783 17.8941 18.3747 16.9085 17.648 16.1818C16.9213 15.4551 15.9357 15.0468 14.908 15.0468H3.75V11.8218C3.75 11.7778 3.774 11.7368 3.812 11.7138L17.47 3.76682ZM19.482 0.525817C18.8902 0.181429 18.2177 0 17.533 0C16.8483 0 16.1758 0.181429 15.584 0.525817L1.926 8.47182C1.33992 8.81287 0.853605 9.30175 0.51563 9.88961C0.177655 10.4775 -0.000142945 11.1437 8.62288e-08 11.8218V16.9218C8.62288e-08 17.4018 0.184 17.8618 0.513 18.2108L15.546 34.0998C15.9 34.4738 16.393 34.6858 16.908 34.6858H31.191C32.2187 34.6858 33.2043 34.2776 33.931 33.5509C34.6577 32.8242 35.066 31.8385 35.066 30.8108V11.8218C35.066 10.4418 34.332 9.16682 33.14 8.47182L19.482 0.525817Z" fill="white"/>
<path d="M41.8212 25L45.4372 14.44H48.7972L52.4132 25H49.9172L47.2452 16.264H47.0052L44.3172 25H41.8212ZM43.8532 22.92V21.352H50.7172V22.92H43.8532ZM55.7817 25L52.9817 16.616H55.5257L57.3017 23.176H57.5577L59.3337 16.616H61.7817L58.9657 25H55.7817ZM67.4417 25.192C66.503 25.192 65.8097 24.9467 65.3617 24.456C64.9244 23.9547 64.7057 23.16 64.7057 22.072V18.408H63.4897L63.5217 16.6H64.3697C64.7004 16.6 64.9457 16.552 65.1057 16.456C65.2657 16.36 65.3617 16.184 65.3937 15.928L65.6017 14.728H66.9137V16.6H69.0417V18.472H66.9137V21.976C66.9137 22.36 67.0044 22.6373 67.1857 22.808C67.367 22.9787 67.6444 23.064 68.0177 23.064C68.2204 23.064 68.4124 23.0427 68.5937 23C68.7857 22.9573 68.951 22.888 69.0897 22.792V24.936C68.759 25.0427 68.455 25.112 68.1777 25.144C67.9004 25.176 67.655 25.192 67.4417 25.192ZM75.3866 25.224C74.5439 25.224 73.8026 25.0587 73.1626 24.728C72.5226 24.3867 72.0212 23.8907 71.6586 23.24C71.2959 22.5787 71.1146 21.7573 71.1146 20.776C71.1146 19.7947 71.2959 18.9787 71.6586 18.328C72.0319 17.6773 72.5386 17.192 73.1786 16.872C73.8292 16.5413 74.5652 16.376 75.3866 16.376C76.2292 16.376 76.9706 16.5413 77.6106 16.872C78.2612 17.2027 78.7679 17.6987 79.1306 18.36C79.5039 19.0107 79.6906 19.8267 79.6906 20.808C79.6906 21.8 79.4986 22.6267 79.1146 23.288C78.7412 23.9387 78.2292 24.424 77.5786 24.744C76.9386 25.064 76.2079 25.224 75.3866 25.224ZM75.4666 23.512C75.8826 23.512 76.2292 23.416 76.5066 23.224C76.7946 23.032 77.0079 22.744 77.1466 22.36C77.2959 21.9653 77.3706 21.4907 77.3706 20.936C77.3706 20.3493 77.2906 19.8533 77.1306 19.448C76.9812 19.032 76.7572 18.7173 76.4586 18.504C76.1599 18.28 75.7812 18.168 75.3226 18.168C74.9279 18.168 74.5866 18.264 74.2986 18.456C74.0106 18.6373 73.7919 18.9253 73.6426 19.32C73.4932 19.704 73.4186 20.1787 73.4186 20.744C73.4186 21.6507 73.5999 22.3387 73.9626 22.808C74.3252 23.2773 74.8266 23.512 75.4666 23.512ZM81.8197 22.92V20.696C82.3424 20.088 82.8064 19.5067 83.2117 18.952C83.617 18.3973 83.969 17.8693 84.2677 17.368C84.577 16.856 84.8384 16.3547 85.0517 15.864C85.265 15.3733 85.4517 14.8933 85.6117 14.424H89.5957V25H87.3237V15.96H87.1637C86.897 16.6213 86.5984 17.2453 86.2677 17.832C85.9477 18.408 85.601 18.952 85.2277 19.464C84.865 19.976 84.481 20.4667 84.0757 20.936V21.096H91.0517V22.92H81.8197ZM93.0681 25V22.648L97.1641 19.944C97.3561 19.8267 97.5481 19.688 97.7401 19.528C97.9427 19.368 98.1241 19.1867 98.2841 18.984C98.4547 18.7813 98.5934 18.5627 98.7001 18.328C98.8067 18.0827 98.8601 17.816 98.8601 17.528C98.8601 17.24 98.7907 16.9893 98.6521 16.776C98.5241 16.5627 98.3321 16.4027 98.0761 16.296C97.8307 16.1787 97.5267 16.12 97.1641 16.12C96.8014 16.12 96.4974 16.1787 96.2521 16.296C96.0174 16.4027 95.8254 16.5627 95.6761 16.776C95.5374 16.9787 95.4361 17.224 95.3721 17.512C95.3187 17.8 95.2921 18.1147 95.2921 18.456L93.0841 18.008C93.0627 17.2187 93.2121 16.5413 93.5321 15.976C93.8627 15.4 94.3374 14.9573 94.9561 14.648C95.5747 14.3387 96.3267 14.184 97.2121 14.184C97.9801 14.184 98.6574 14.3067 99.2441 14.552C99.8414 14.7867 100.305 15.144 100.636 15.624C100.967 16.0933 101.132 16.6747 101.132 17.368C101.132 17.9013 101.041 18.3813 100.86 18.808C100.689 19.2347 100.46 19.6187 100.172 19.96C99.8947 20.2907 99.5854 20.584 99.2441 20.84C98.9134 21.096 98.5881 21.32 98.2681 21.512L95.7401 23.064V23.208L101.308 23.128V25H93.0681Z" fill="white"/>
</svg>
